<svg width="200" height="60" viewBox="0 0 200 60" xmlns="http://www.w3.org/2000/svg">
  <!-- Background circle for the icon -->
  <circle cx="30" cy="30" r="24" fill="rgb(30,58,43)" opacity="0.1"/>
  
  <!-- Wine glass silhouette -->
  <path d="M20 15 L20 25 Q20 30 25 30 L35 30 Q40 30 40 25 L40 15 Z" fill="rgb(30,58,43)" opacity="0.8"/>
  <rect x="28" y="30" width="4" height="8" fill="rgb(30,58,43)" opacity="0.8"/>
  <rect x="25" y="38" width="10" height="2" fill="rgb(30,58,43)" opacity="0.8"/>
  
  <!-- Grape cluster -->
  <circle cx="35" cy="18" r="2" fill="rgb(30,58,43)"/>
  <circle cx="33" cy="20" r="2" fill="rgb(30,58,43)"/>
  <circle cx="37" cy="20" r="2" fill="rgb(30,58,43)"/>
  <circle cx="35" cy="22" r="2" fill="rgb(30,58,43)"/>
  
  <!-- AI circuit pattern (subtle) -->
  <circle cx="42" cy="25" r="1.5" fill="rgb(207,220,255)" opacity="0.7"/>
  <circle cx="45" cy="28" r="1" fill="rgb(207,220,255)" opacity="0.7"/>
  <circle cx="48" cy="25" r="1" fill="rgb(207,220,255)" opacity="0.7"/>
  <line x1="42" y1="25" x2="45" y2="28" stroke="rgb(207,220,255)" stroke-width="1" opacity="0.5"/>
  <line x1="45" y1="28" x2="48" y2="25" stroke="rgb(207,220,255)" stroke-width="1" opacity="0.5"/>
  
  <!-- Company name -->
  <text x="65" y="25" font-family="Inter, system-ui, -apple-system, sans-serif" font-size="22" font-weight="700" fill="rgb(30,58,43)">
    Vera Vino
  </text>
  
  <!-- Tagline -->
  <text x="65" y="42" font-family="Inter, system-ui, -apple-system, sans-serif" font-size="11" font-weight="500" fill="rgb(30,58,43)" opacity="0.7">
    AI-Weinberater
  </text>
</svg>