<svg width="60" height="60" viewBox="0 0 60 60" xmlns="http://www.w3.org/2000/svg">
  <!-- Background circle -->
  <circle cx="30" cy="30" r="28" fill="rgb(30,58,43)"/>
  
  <!-- Wine glass silhouette -->
  <path d="M20 18 L20 28 Q20 33 25 33 L35 33 Q40 33 40 28 L40 18 Z" fill="white" opacity="0.9"/>
  <rect x="28" y="33" width="4" height="8" fill="white" opacity="0.9"/>
  <rect x="25" y="41" width="10" height="2" fill="white" opacity="0.9"/>
  
  <!-- Grape cluster -->
  <circle cx="35" cy="21" r="2.5" fill="white" opacity="0.9"/>
  <circle cx="32" cy="24" r="2.5" fill="white" opacity="0.9"/>
  <circle cx="38" cy="24" r="2.5" fill="white" opacity="0.9"/>
  <circle cx="35" cy="27" r="2.5" fill="white" opacity="0.9"/>
  <circle cx="32" cy="30" r="2" fill="white" opacity="0.7"/>
  <circle cx="38" cy="30" r="2" fill="white" opacity="0.7"/>
  
  <!-- AI circuit dots (subtle) -->
  <circle cx="45" cy="35" r="1.5" fill="rgb(207,220,255)" opacity="0.8"/>
  <circle cx="48" cy="38" r="1" fill="rgb(207,220,255)" opacity="0.8"/>
  <circle cx="42" cy="38" r="1" fill="rgb(207,220,255)" opacity="0.8"/>
  <line x1="45" y1="35" x2="48" y2="38" stroke="rgb(207,220,255)" stroke-width="1" opacity="0.6"/>
  <line x1="45" y1="35" x2="42" y2="38" stroke="rgb(207,220,255)" stroke-width="1" opacity="0.6"/>
</svg>